<svg width="200" height="200" viewBox="0 0 200 200" fill="none" xmlns="http://www.w3.org/2000/svg">
<path d="M79.6705 164.647V165.513L80.4205 165.946L89.7275 171.319L91.9775 172.618V170.02V102.496V101.63L91.2275 101.197L81.3439 95.4907L80.1056 94.7758L79.3323 95.9785L61.6043 123.548L43.2908 73.921L43.1031 73.4123L42.6335 73.1413L32.75 67.435L30.5 66.136V68.734V136.258V137.124L31.25 137.557L40.4746 142.883L42.7246 144.182V141.584V101.797L57.1148 140.49L57.3031 140.996L57.7708 141.266L63.2067 144.405L64.441 145.117L65.2158 143.921L79.6705 121.6V164.647ZM98.8044 88.8056L99.5544 89.2386L100.304 88.8056L130.297 71.4896C136.187 68.0887 140.29 64.3009 142.34 60.0517C144.418 55.743 144.285 51.3723 141.98 47.0969C139.76 42.8448 135.507 39.0078 129.461 35.5172C123.93 32.3239 117.819 30.0661 111.139 28.7359C104.436 27.3374 97.5953 27.1268 90.6265 28.0989C83.562 29.0449 76.7905 31.3936 70.3195 35.1296L40.327 52.4456L38.077 53.7446L40.327 55.0437L98.8044 88.8056ZM105.839 38.7565L105.849 38.7585L105.859 38.7604C110.363 39.6483 114.6 41.2386 118.576 43.5338C122.462 45.7776 125.097 48.1317 126.624 50.5488C128.108 52.8959 128.368 55.1241 127.555 57.3664L127.552 57.3765L127.548 57.3866C126.791 59.5755 124.64 61.8762 120.643 64.1838L100.621 75.7434L61.4515 53.1288L79.9734 42.4353L79.2234 41.1363L79.9734 42.4353C83.8624 40.1899 88.0065 38.7977 92.4162 38.2527L92.4262 38.2515L92.4363 38.2501C96.8722 37.6408 101.337 37.8081 105.839 38.7565ZM107.109 172.607L109.359 171.308L118.581 165.984L119.331 165.551V164.685V142.061L143.656 128.017L155.532 143.163L156.335 144.187L157.463 143.536L167.837 137.546L169.326 136.687L168.272 135.328L155.332 118.633C157.344 116.537 159.114 114.162 160.643 111.514C162.461 108.428 163.856 105.191 164.824 101.803C165.79 98.4224 166.281 95.1607 166.281 92.0235C166.281 89.1349 165.788 86.5296 164.757 84.2434C163.786 81.9395 162.364 80.092 160.467 78.7714C158.593 77.3961 156.384 76.7318 153.913 76.7313C151.372 76.7309 148.697 77.609 145.918 79.2134L107.859 101.186L107.109 101.619V102.485V170.009V172.607ZM152.808 92.7255L152.817 92.739L152.826 92.7522C153.483 93.7487 153.895 95.2598 153.895 97.4426C153.895 99.553 153.541 101.743 152.815 104.019C152.089 106.234 151.109 108.224 149.881 109.997C148.667 111.749 147.314 113.025 145.835 113.879L119.331 129.181V107.443L146.841 91.5595C148.268 90.7356 149.372 90.5884 150.25 90.8116L150.272 90.8172L150.294 90.8222C151.279 91.0412 152.114 91.6221 152.808 92.7255Z" fill="#000000DE" stroke="#000000DE" stroke-width="2"/>
</svg>
